<?xml version="1.0" standalone="no"?>
<!DOCTYPE svg PUBLIC "-//W3C//DTD SVG 20010904//EN"
 "http://www.w3.org/TR/2001/REC-SVG-20010904/DTD/svg10.dtd">
<svg version="1.0" xmlns="http://www.w3.org/2000/svg"
 width="4096.000000pt" height="4096.000000pt" viewBox="0 0 4096.000000 4096.000000"
 preserveAspectRatio="xMidYMid meet">
<metadata>
Created by potrace 1.14, written by Peter Selinger 2001-2017
</metadata>
<g transform="translate(0.000000,4096.000000) scale(0.100000,-0.100000)"
fill="#000000" stroke="none">
<path d="M19955 40953 c-945 -24 -1935 -118 -2869 -274 -5178 -862 -9838
-3705 -13006 -7934 -781 -1043 -1405 -2061 -1988 -3245 -345 -700 -612 -1325
-875 -2050 -1191 -3286 -1516 -6883 -936 -10364 862 -5178 3705 -9838 7934
-13006 1626 -1218 3393 -2173 5299 -2864 3282 -1190 6881 -1515 10360 -935
5178 862 9838 3705 13006 7934 1218 1626 2173 3393 2864 5299 1190 3282 1515
6880 935 10360 -786 4720 -3221 9025 -6880 12162 -1880 1612 -4026 2865 -6353
3708 -2231 809 -4646 1226 -7021 1214 -203 -1 -415 -3 -470 -5z m6045 -9178
c577 -87 1018 -528 1105 -1105 8 -52 15 -115 15 -140 0 -25 378 -4546 840
-10047 462 -5500 840 -10022 840 -10048 0 -86 -31 -256 -66 -362 -147 -450
-515 -779 -984 -880 -82 -17 -359 -18 -7280 -18 l-7195 0 -95 24 c-400 101
-704 341 -880 696 -82 165 -139 380 -140 530 -1 58 1678 20099 1695 20230 18
146 54 266 120 402 186 381 552 651 975 718 132 21 10913 21 11050 0z"/>
<path d="M20282 29239 c-1202 -81 -2235 -946 -2532 -2119 -174 -686 -79 -1429
261 -2044 580 -1049 1751 -1620 2924 -1426 776 128 1460 573 1896 1233 531
803 613 1826 216 2704 -278 615 -798 1135 -1407 1408 -320 144 -638 222 -995
245 -175 11 -184 11 -363 -1z m473 -260 c553 -57 1089 -307 1496 -696 146
-140 249 -265 368 -444 280 -421 421 -887 423 -1399 1 -409 -79 -762 -256
-1132 -210 -436 -579 -836 -1010 -1091 -550 -325 -1224 -431 -1856 -291 -959
213 -1731 985 -1944 1944 -80 360 -80 762 -1 1113 110 488 339 902 694 1258
558 557 1298 819 2086 738z"/>
<path d="M20315 28654 c-327 -34 -543 -93 -810 -224 -193 -94 -332 -185 -483
-315 -512 -440 -795 -1091 -769 -1765 13 -330 81 -604 223 -895 225 -464 623
-850 1089 -1058 1034 -462 2240 -85 2823 883 216 358 316 720 316 1145 1 363
-62 645 -213 960 -122 254 -254 440 -446 630 -336 332 -766 548 -1235 620
-102 15 -414 27 -495 19z m302 -1085 c266 -36 492 -146 673 -329 449 -451 449
-1174 0 -1621 -244 -243 -588 -366 -920 -330 -509 55 -899 403 -1012 905 -25
108 -29 334 -9 436 49 246 178 484 349 640 250 230 598 343 919 299z"/>
<path d="M20175 21010 c-861 -60 -1660 -325 -2370 -788 -295 -192 -520 -376
-790 -647 -397 -397 -670 -774 -920 -1270 -524 -1040 -659 -2228 -380 -3361
321 -1305 1159 -2415 2335 -3094 508 -293 1111 -503 1690 -589 272 -40 368
-46 740 -46 450 0 660 20 1036 101 1349 288 2529 1155 3230 2374 733 1276 842
2859 292 4235 -615 1536 -1967 2667 -3579 2994 -157 32 -380 65 -554 81 -156
15 -576 20 -730 10z m610 -440 c1406 -104 2655 -836 3430 -2010 639 -969 876
-2177 649 -3310 -162 -811 -538 -1551 -1096 -2160 -407 -444 -927 -819 -1473
-1061 -1393 -616 -2994 -486 -4264 348 -1034 678 -1751 1772 -1955 2980 -46
276 -59 437 -60 743 -1 366 23 606 95 945 282 1338 1192 2495 2434 3094 686
331 1490 486 2240 431z"/>
<path d="M20285 19989 c-916 -41 -1798 -418 -2475 -1058 -462 -437 -814 -987
-1015 -1587 -79 -235 -143 -526 -177 -804 -21 -168 -18 -732 5 -900 61 -450
172 -827 357 -1207 206 -424 433 -746 750 -1063 634 -633 1431 -1015 2345
-1122 170 -20 675 -17 855 5 785 97 1496 410 2084 917 138 119 383 372 488
504 424 531 701 1149 807 1796 40 247 46 329 46 650 0 353 -11 473 -70 766
-321 1589 -1614 2822 -3212 3064 -254 38 -520 51 -788 39z m410 -1889 c354
-41 706 -179 982 -387 656 -493 943 -1326 732 -2121 -266 -1005 -1281 -1639
-2305 -1441 -825 159 -1449 798 -1595 1634 -18 102 -23 169 -23 315 0 212 12
322 59 506 93 363 271 671 541 935 317 308 699 494 1139 553 122 17 349 19
470 6z"/>
</g>
</svg>
