<?xml version="1.0" standalone="no"?>
<!DOCTYPE svg PUBLIC "-//W3C//DTD SVG 20010904//EN"
 "http://www.w3.org/TR/2001/REC-SVG-20010904/DTD/svg10.dtd">
<svg version="1.0" xmlns="http://www.w3.org/2000/svg"
 width="1024.000000pt" height="1024.000000pt" viewBox="0 0 1024.000000 1024.000000"
 preserveAspectRatio="xMidYMid meet">
<metadata>
Created by potrace 1.14, written by Peter Selinger 2001-2017
</metadata>
<g transform="translate(0.000000,1024.000000) scale(0.100000,-0.100000)"
fill="#000000" stroke="none">
<path d="M4780 10229 c-1112 -74 -2168 -509 -3015 -1243 -158 -137 -445 -430
-575 -586 -916 -1102 -1326 -2502 -1149 -3920 125 -1006 544 -1943 1213 -2715
137 -158 430 -445 586 -575 1102 -916 2502 -1326 3920 -1149 1006 125 1943
544 2715 1213 158 137 445 430 575 586 916 1102 1326 2502 1149 3920 -125
1006 -544 1943 -1213 2715 -137 158 -430 445 -586 575 -939 780 -2098 1197
-3305 1188 -104 0 -246 -5 -315 -9z m1610 -2626 c105 -34 183 -135 195 -254
30 -282 373 -4466 368 -4491 -18 -98 -104 -196 -196 -223 -44 -13 -252 -15
-1643 -15 -1580 0 -1594 0 -1648 20 -95 36 -166 124 -181 225 -7 43 357 4432
374 4525 19 97 99 186 194 216 34 10 291 13 1263 13 1119 1 1226 0 1274 -16z"/>
<path d="M5035 7053 c-240 -32 -460 -229 -520 -468 -19 -77 -19 -224 0 -300
62 -236 257 -418 495 -461 138 -25 251 -8 389 59 147 71 258 204 317 377 14
42 19 84 19 175 0 129 -11 176 -66 286 -113 227 -378 366 -634 332z m220 -68
c190 -49 346 -196 406 -385 16 -48 21 -91 21 -165 0 -167 -59 -305 -179 -415
-228 -209 -566 -201 -783 19 -143 144 -196 321 -155 514 43 204 216 384 418
433 73 17 201 17 272 -1z"/>
<path d="M5014 6915 c-227 -49 -384 -246 -384 -480 0 -198 105 -362 285 -446
322 -151 695 92 695 451 0 124 -49 239 -142 336 -70 73 -152 120 -245 139 -82
18 -129 18 -209 0z m187 -240 c184 -63 229 -316 78 -436 -105 -83 -244 -75
-338 19 -52 53 -73 107 -72 187 2 169 170 285 332 230z"/>
<path d="M4972 5229 c-105 -13 -212 -47 -327 -103 -130 -64 -213 -125 -313
-230 -197 -208 -293 -452 -293 -746 0 -230 61 -425 193 -617 60 -87 199 -223
288 -281 326 -214 728 -239 1075 -67 130 64 216 127 310 226 444 472 380 1219
-138 1610 -226 170 -511 245 -795 208z m409 -123 c119 -35 188 -67 287 -132
202 -135 345 -338 408 -579 22 -85 26 -122 26 -240 1 -118 -3 -155 -25 -236
-96 -364 -354 -621 -727 -725 -51 -15 -101 -18 -235 -18 -156 0 -178 2 -260
27 -355 107 -610 372 -697 724 -29 119 -31 323 -4 438 79 344 329 621 654 725
134 43 179 49 342 46 120 -3 160 -8 231 -30z"/>
<path d="M4961 4999 c-181 -35 -334 -121 -467 -262 -119 -125 -189 -264 -219
-433 -19 -110 -19 -189 0 -299 30 -169 102 -310 224 -438 182 -191 392 -275
660 -265 108 4 140 10 223 38 284 95 492 316 569 605 30 112 30 307 1 417 -87
325 -338 565 -663 633 -76 16 -256 18 -328 4z m235 -410 c209 -38 363 -223
364 -436 0 -119 -51 -233 -144 -321 -278 -263 -736 -61 -736 324 0 209 141
385 344 429 77 17 99 17 172 4z"/>
</g>
</svg>
