<svg width="637" height="300" viewBox="0 0 637 300" fill="none" xmlns="http://www.w3.org/2000/svg">
<path fill-rule="evenodd" clip-rule="evenodd" d="M51.1807 151.465L155.952 0H206.94L47.7482 230.14C21.4229 268.198 -38.6438 272.362 -86.1852 239.477C-133.727 206.591 -151.007 148.9 -124.693 110.859C-98.3798 72.8186 -38.3019 68.6382 9.24126 101.523C27.5177 114.031 42.021 131.302 51.1807 151.465ZM525.026 129.874L283.997 0H592.103L625.208 17.8491C630.427 20.7126 634.21 25.6314 635.636 31.4116C637.028 37.2095 635.883 43.3256 632.491 48.23L458.337 300H407.347L525.026 129.874ZM364.546 300C358.281 293.156 351.223 287.022 343.492 281.741C295.95 248.855 235.872 253.037 209.559 291.078C207.574 293.946 205.838 296.927 204.344 300H364.546Z" fill="white" fill-opacity="0.05"/>
</svg>
